<?xml version="1.0" encoding="utf-8"?>

<!DOCTYPE svg PUBLIC "-//W3C//DTD SVG 1.1//EN" "http://www.w3.org/Graphics/SVG/1.1/DTD/svg11.dtd">
<svg version="1.1" id="Layer_1" xmlns="http://www.w3.org/2000/svg" xmlns:xlink="http://www.w3.org/1999/xlink" x="0px" y="0px"
	 viewBox="0 0 2538 1653.653" enable-background="new 0 0 2538 1653.653" xml:space="preserve">
<g>
	<path d="M1175.1246,175.4949c27.7935-50.0434,55.8136-99.9607,85.875-148.6684c31.2708,49.9676,59.8956,101.5733,88.4955,153.1032
		c23.0562,42.761,48.0023,84.6404,66.9008,129.518c40.8459,93.6612,74.2334,191.984,84.1111,294.2123
		c6.6271,72.4192,0.3024,148.0385-31.4473,214.3596c-0.7306-0.0754-2.2173-0.2015-2.9481-0.2772
		c-14.892-47.3973-32.8079-93.787-52.9159-139.2192c-18.2181-42.3577-41.9296-81.9942-63.7006-122.5633
		c-28.6501-51.5046-57.0736-103.2111-88.5206-153.0529c-43.1896,70.2774-82.8512,142.6713-122.1099,215.2166
		c-19.9316,35.3025-35.5543,72.772-50.8496,110.2667c-12.095,30.5148-23.3838,61.3824-32.8834,92.8295
		c-9.0964-14.8918-14.2872-31.7999-19.7048-48.2792c-19.1002-63.1968-19.6797-130.6016-10.8352-195.6124
		c13.0022-93.258,44.0714-183.0134,81.7173-268.9642C1125.7617,262.3526,1151.5645,219.4403,1175.1246,175.4949z"/>
	<path d="M664.814,236.5246c103.7151,35.882,199.2913,93.2577,283.8055,162.8549c13.0022,10.8854,25.8532,21.9978,37.9734,33.8912
		c-24.4925,47.9015-32.7322,102.2031-34.9749,155.4213c-2.167,83.2545,9.3484,166.9875,34.8741,246.2859
		c-52.0339-70.8569-103.4631-144.4606-174.4964-197.9055c-42.0303-32.4299-88.2687-58.8121-134.6583-84.3882
		c-16.278-53.5459-19.9568-109.9391-21.3176-165.5766C655.6923,336.7874,658.8925,286.467,664.814,236.5246z"/>
	<path d="M1664.521,352.36c68.5638-48.1534,142.9988-88.546,222.3224-115.911c8.1136,69.2442,11.6415,139.2696,6.1733,208.8666
		c-3.0236,36.2096-7.7861,72.5449-18.5205,107.3436c-46.4904,25.5256-92.7288,51.9836-134.7843,84.4387
		c-65.1118,49.1866-114.4495,115.2054-161.7966,180.8464c-3.9309,5.4678-7.5594,11.2635-12.3722,16.0764
		c20.0073-62.1889,31.0692-127.1243,34.1433-192.3621c2.7717-70.5292-2.3938-144.2083-34.4708-208.3372
		C1595.806,403.4364,1629.7477,377.18,1664.521,352.36z"/>
	<path d="M273.7152,454.6135c202.8694,51.6812,389.8641,159.05,542.7406,301.3685c42.4586,40.2415,83.733,82.2716,118.582,129.3922
		c-78.0888-55.3351-159.3776-106.5626-245.5046-148.5679c-64.7841-31.548-131.7354-59.543-201.685-77.4587
		c13.9597,35.353,16.5551,73.8304,21.7207,111.1738c-31.4472-29.003-67.2536-52.6387-102.7576-76.2493
		c-27.869-18.4196-56.494-35.6802-84.8166-53.3693c-21.6451-21.8468-32.7323-51.7064-39.7373-81.0874
		C274.5971,525.3947,271.7498,489.8151,273.7152,454.6135z"/>
	<path d="M1640.6333,830.1904c163.8376-178.3518,377.9706-312.2794,613.1438-372.5782
		c1.8647,51.4542-2.6458,104.849-24.6184,152.1205c-8.1641,15.1942-16.9834,31.9762-32.9844,40.1403
		c-47.7502,29.0282-95.0469,58.9383-140.0254,92.099c-13.3298,9.6759-25.702,20.5112-38.1498,31.2456
		c4.8379-37.2428,7.8365-75.4431,21.4183-110.7708c-53.4451,13.5566-105.0507,33.4631-155.3962,55.7633
		c-102.7325,46.0621-199.7197,104.2947-290.9366,170.1624C1606.4395,867.1809,1624.2798,849.1141,1640.6333,830.1904z"/>
	<path d="M1171.4457,829.2328c30.5905-55.1586,61.0045-110.4933,94.5179-163.9386c30.2881,48.2291,57.905,98.0961,85.6228,147.8118
		c17.941,32.556,35.8318,65.1621,53.0671,98.0961c25.576,54.4781,48.2795,110.3672,66.2205,167.8441
		c4.9137,13.8336,7.4587,28.4736,12.9771,42.0806c14.4132-35.3529,41.5264-63.6503,70.3529-87.8655
		c38.8806-32.2537,82.6495-57.9808,127.4768-80.9866c61.6345-31.0187,125.713-57.2247,191.3792-78.3911
		c-11.7926,15.8245-16.3031,35.6301-17.5127,55.0325c61.5338-67.5558,143.0242-113.5674,226.9589-147.5344
		c114.7014-45.2811,236.7859-70.5797,359.5005-80.5331c-31.3967,21.3177-57.0232,50.1442-77.4084,81.9693
		c-31.2456,48.6323-52.6135,102.9592-68.6648,158.2943c-5.8206,18.8481-8.5923,38.5529-15.5217,57.0986
		c-29.885,88.4703-77.459,171.3215-141.3865,239.6083c-96.4075,103.7654-226.8325,172.5057-363.9855,204.8347
		c-8.9202,2.3939-18.3947,3.0743-26.9619,6.6271c-25.929,32.7827-56.8468,61.9117-92.5776,83.8087
		c-82.0197,50.9503-185.1553,61.458-277.9847,38.5278c-33.5134,24.8452-71.7892,42.8115-111.5266,55.209
		c-39.3593-12.347-77.3075-29.8346-110.7201-54.1509c-62.7936,14.8165-129.5179,14.0859-191.6563-3.5526
		c-69.597-19.5286-131.2314-63.5494-174.8492-120.875c-95.3494-18.7727-187.3726-55.3351-268.8379-108.402
		c-76.0981-49.6151-142.1169-114.9535-191.0767-191.5555c-29.7841-46.2888-53.4702-96.3824-71.2349-148.4165
		c-5.1656-13.5566-8.139-27.7431-11.4903-41.7783c-15.0684-57.4769-36.2852-113.6935-66.7496-164.8204
		c-21.4435-35.7811-48.8842-68.3875-83.3803-92.25c107.9232,8.2902,215.0149,29.6329,317.4197,64.8345
		c99.255,34.6725,195.8392,84.9678,268.5607,162.376c-1.663-19.1-5.7955-38.7795-17.7142-54.3016
		c44.4746,14.0352,87.9916,31.0186,130.7274,49.6652c52.2104,23.1068,103.3876,49.111,150.6088,81.3646
		c41.728,28.7006,81.5408,63.0203,105.3026,108.6035c15.6481-56.6956,36.134-111.9799,59.7446-165.8032
		C1127.7524,906.6916,1150.4557,868.3655,1171.4457,829.2328z"/>
</g>
</svg>
