<?xml version="1.0" encoding="UTF-8" standalone="no"?>
<!-- Created with Inkscape (http://www.inkscape.org/) -->

<svg
   xmlns:dc="http://purl.org/dc/elements/1.1/"
   xmlns:cc="http://creativecommons.org/ns#"
   xmlns:rdf="http://www.w3.org/1999/02/22-rdf-syntax-ns#"
   xmlns:svg="http://www.w3.org/2000/svg"
   xmlns="http://www.w3.org/2000/svg"
   xmlns:sodipodi="http://sodipodi.sourceforge.net/DTD/sodipodi-0.dtd"
   xmlns:inkscape="http://www.inkscape.org/namespaces/inkscape"
   width="98.821114mm"
   height="177.57857mm"
   viewBox="0 0 350.15356 629.21539"
   id="svg4341"
   version="1.1"
   inkscape:version="0.91 r13725"
   sodipodi:docname="prize ribbon white.svg">
  <defs
     id="defs4343">
    <clipPath
       id="clipEmfPath1"
       clipPathUnits="userSpaceOnUse">
      <path
         inkscape:connector-curvature="0"
         id="path4354"
         d="m 3.75086,1.25029 295.06714,0 0,546.37471 -295.06714,0 z" />
    </clipPath>
    <pattern
       y="0"
       x="0"
       height="6"
       width="6"
       patternUnits="userSpaceOnUse"
       id="EMFhbasepattern" />
    <clipPath
       id="clipEmfPath1-5"
       clipPathUnits="userSpaceOnUse">
      <path
         inkscape:connector-curvature="0"
         id="path4771"
         d="m 3.75086,1.25029 295.06714,0 0,546.37471 -295.06714,0 z" />
    </clipPath>
    <pattern
       y="0"
       x="0"
       height="6"
       width="6"
       patternUnits="userSpaceOnUse"
       id="EMFhbasepattern-9" />
  </defs>
  <sodipodi:namedview
     id="base"
     pagecolor="#ffffff"
     bordercolor="#666666"
     borderopacity="1.0"
     inkscape:pageopacity="0.0"
     inkscape:pageshadow="2"
     inkscape:zoom="0.35"
     inkscape:cx="353.78295"
     inkscape:cy="400.64372"
     inkscape:document-units="px"
     inkscape:current-layer="layer1"
     showgrid="false"
     fit-margin-top="0"
     fit-margin-left="0"
     fit-margin-right="0"
     fit-margin-bottom="0"
     inkscape:window-width="1366"
     inkscape:window-height="706"
     inkscape:window-x="-8"
     inkscape:window-y="-8"
     inkscape:window-maximized="1" />
  <metadata
     id="metadata4346">
    <rdf:RDF>
      <cc:Work
         rdf:about="">
        <dc:format>image/svg+xml</dc:format>
        <dc:type
           rdf:resource="http://purl.org/dc/dcmitype/StillImage" />
        <dc:title></dc:title>
      </cc:Work>
    </rdf:RDF>
  </metadata>
  <g
     inkscape:label="Layer 1"
     inkscape:groupmode="layer"
     id="layer1"
     transform="translate(-21.217046,-303.79052)">
    <path
       inkscape:connector-curvature="0"
       id="path4774"
       d="m 187.6945,426.75894 c -1.23116,-44.83772 -2.36658,-89.76826 0,-107.68481 2.46227,-17.91655 12.12124,-17.63806 14.48781,0.37127 2.36776,17.91646 1.04211,62.6614 -0.37827,107.31346 z"
       style="fill:#ffffff;fill-opacity:1;fill-rule:evenodd;stroke:none" />
    <path
       transform="matrix(1.2117604,0,0,1.1879748,12.517575,297.4443)"
       inkscape:connector-curvature="0"
       id="path4776"
       d="m 144.564,108.853 c -1.016,-37.743 -1.953,-75.5641 0,-90.6457 2.032,-15.08159 10.003,-14.84716 11.956,0.3126 1.954,15.0815 0.86,52.7464 -0.312,90.3331"
       clip-path="url(#clipEmfPath1-5)"
       style="fill:#ffffff;stroke:#000000;stroke-width:3.36014342px;stroke-linecap:butt;stroke-linejoin:round;stroke-miterlimit:4;stroke-dasharray:none;stroke-opacity:1" />
    <path
       inkscape:connector-curvature="0"
       id="path4778"
       d="m 106.92389,601.654 c 5.30264,-15.59609 13.5408,-28.5925 23.86198,-39.82475 12.49883,-8.16953 26.41829,-12.62556 39.95974,-11.23225 12.68835,3.89913 23.29364,13.45984 32.19406,25.89892 4.73433,14.39012 7.0076,29.52151 5.20813,45.76669 l -65.14665,306.90146 c 1.79946,-16.2456 -0.75736,-30.16974 -5.11364,-45.67281 -8.9954,-12.53169 -19.60073,-22.09409 -32.28929,-25.9928 -13.54072,-1.39246 -27.460184,3.1566 -39.864636,11.23225 -10.700092,12.53337 -18.65406,24.22992 -23.956746,39.8256 z"
       style="fill:#ffffff;fill-opacity:1;fill-rule:evenodd;stroke:none" />
    <path
       inkscape:connector-curvature="0"
       id="path4780"
       d="m 106.92389,601.654 c 5.30264,-15.59609 13.5408,-28.5925 23.86198,-39.82475 12.49883,-8.16953 26.41829,-12.62556 39.95974,-11.23225 12.68835,3.89913 23.29364,13.45984 32.19406,25.89892 4.73433,14.39012 7.0076,29.52151 5.20813,45.76669 l -65.14665,306.90146 c 1.79946,-16.2456 -0.75736,-30.16974 -5.11364,-45.67281 -8.9954,-12.53169 -19.60073,-22.09409 -32.28929,-25.9928 -13.54072,-1.39246 -27.460184,3.1566 -39.864636,11.23225 -10.700092,12.53337 -18.65406,24.22992 -23.956746,39.8256 z"
       style="fill:#ffffff;stroke:#000000;stroke-width:4.03152943px;stroke-linecap:butt;stroke-linejoin:miter;stroke-miterlimit:8;stroke-dasharray:none;stroke-opacity:1" />
    <path
       inkscape:connector-curvature="0"
       id="path4782"
       d="m 186.08528,602.02569 c -0.37913,-16.43208 3.02938,-31.37783 8.99488,-45.30239 8.99611,-11.69656 20.64355,-20.51642 33.8045,-23.57873 13.35236,-0.37043 26.60902,5.10595 39.29737,14.01674 9.27967,11.88345 16.57082,25.4359 20.3576,41.40326 l 42.42128,310.708 c -3.78672,-15.96653 -10.88888,-28.2204 -20.35756,-41.40242 -12.59384,-8.91206 -25.94499,-14.3897 -39.20165,-14.01801 -13.25665,3.06399 -24.80959,11.88218 -33.80451,23.57914 -5.87095,15.22483 -9.37537,28.87117 -9.09062,45.30198 z"
       style="fill:#ffffff;fill-opacity:1;fill-rule:evenodd;stroke:none" />
    <path
       inkscape:connector-curvature="0"
       id="path4784"
       d="m 190.08528,622.02569 c -0.37913,-16.43208 3.02938,-31.37783 8.99488,-45.30239 8.99611,-11.69656 20.64355,-20.51642 33.8045,-23.57873 13.35236,-0.37043 26.60902,5.10595 39.29737,14.01674 9.27967,11.88345 16.57082,25.4359 20.3576,41.40326 l 42.42128,310.708 c -3.78672,-15.96653 -10.88888,-28.2204 -20.35756,-41.40242 -12.59384,-8.91206 -25.94499,-14.3897 -39.20165,-14.01801 -13.25665,3.06399 -24.80959,11.88218 -33.80451,23.57914 -5.87095,15.22483 -9.37537,28.87117 -9.09062,45.30198 z"
       style="fill:#ffffff;stroke:#000000;stroke-width:4.03152943px;stroke-linecap:butt;stroke-linejoin:miter;stroke-miterlimit:8;stroke-dasharray:none;stroke-opacity:1" />
    <path
       inkscape:connector-curvature="0"
       id="path4786"
       d="m 203.50796,524.04687 c 1.23117,44.9303 2.46229,89.76839 0,107.68426 -2.36656,17.91673 -12.12004,17.63891 -14.3933,-0.37042 -2.36657,-17.91713 -1.04091,-62.66221 0.28467,-107.31341 z"
       style="fill:#ffffff;fill-opacity:1;fill-rule:evenodd;stroke:none" />
    <path
       inkscape:connector-curvature="0"
       id="path4788"
       d="m 203.50796,524.04687 c 1.23117,44.9303 2.46229,89.76839 0,107.68426 -2.36656,17.91673 -12.12004,17.63891 -14.3933,-0.37042 -2.36657,-17.91713 -1.04091,-62.66221 0.28467,-107.31341"
       style="fill:#ffffff;stroke:#000000;stroke-width:4.03152943px;stroke-linecap:butt;stroke-linejoin:round;stroke-miterlimit:10;stroke-dasharray:none;stroke-opacity:1" />
    <path
       inkscape:connector-curvature="0"
       id="path4790"
       d="m 201.33045,425.08744 c 8.04851,-21.72211 16.09702,-43.44471 20.64231,-51.52104 4.63984,-8.07642 9.18517,-6.21976 6.9119,2.78486 -2.36656,9.09753 -11.55173,30.17042 -20.73686,51.33547 z"
       style="fill:#ffffff;fill-opacity:1;fill-rule:evenodd;stroke:none" />
    <path
       inkscape:connector-curvature="0"
       id="path4792"
       d="m 201.33045,425.08744 c 8.04851,-21.72211 16.09702,-43.44471 20.64231,-51.52104 4.63984,-8.07642 9.18517,-6.21976 6.9119,2.78486 -2.36656,9.09753 -11.55173,30.17042 -20.73686,51.33547"
       style="fill:#ffffff;stroke:#000000;stroke-width:4.03152943px;stroke-linecap:butt;stroke-linejoin:round;stroke-miterlimit:10;stroke-dasharray:none;stroke-opacity:1" />
    <path
       inkscape:connector-curvature="0"
       id="path4794"
       d="m 213.545,430.93585 c 10.89008,-20.42248 21.68442,-40.9383 27.36637,-48.36483 5.58624,-7.42649 9.84676,-4.92012 6.34359,3.71324 -3.50323,8.6334 -15.43422,28.40652 -27.36521,48.17987 z"
       style="fill:#ffffff;fill-opacity:1;fill-rule:evenodd;stroke:none" />
    <path
       inkscape:connector-curvature="0"
       id="path4796"
       d="m 213.545,430.93585 c 10.89008,-20.42248 21.68442,-40.9383 27.36637,-48.36483 5.58624,-7.42649 9.84676,-4.92012 6.34359,3.71324 -3.50323,8.6334 -15.43422,28.40652 -27.36521,48.17987"
       style="fill:#ffffff;stroke:#000000;stroke-width:4.03152943px;stroke-linecap:butt;stroke-linejoin:round;stroke-miterlimit:10;stroke-dasharray:none;stroke-opacity:1" />
    <path
       inkscape:connector-curvature="0"
       id="path4798"
       d="m 208.99967,427.31608 c 11.26813,-27.47832 22.53631,-54.95655 28.78657,-65.168 6.24905,-10.21148 12.02549,-7.51943 8.61682,3.89892 -3.31414,11.51113 -16.09703,38.15386 -28.88108,64.88885 z"
       style="fill:#ffffff;fill-opacity:1;fill-rule:evenodd;stroke:none" />
    <path
       inkscape:connector-curvature="0"
       id="path4800"
       d="m 208.99967,427.31608 c 11.26813,-27.47832 22.53631,-54.95655 28.78657,-65.168 6.24905,-10.21148 12.02549,-7.51943 8.61682,3.89892 -3.31414,11.51113 -16.09703,38.15386 -28.88108,64.88885"
       style="fill:#ffffff;stroke:#000000;stroke-width:4.03152943px;stroke-linecap:butt;stroke-linejoin:round;stroke-miterlimit:10;stroke-dasharray:none;stroke-opacity:1" />
    <path
       inkscape:connector-curvature="0"
       id="path4802"
       d="m 195.27041,424.34495 c 7.19665,-28.6846 14.3921,-57.46243 19.12764,-68.50943 4.73435,-10.95418 10.88889,-9.09753 9.18393,2.6921 -1.70372,11.88247 -10.50958,40.10328 -19.31666,68.23132 z"
       style="fill:#ffffff;fill-opacity:1;fill-rule:evenodd;stroke:none" />
    <path
       inkscape:connector-curvature="0"
       id="path4804"
       d="m 195.27041,424.34495 c 7.19665,-28.6846 14.3921,-57.46243 19.12764,-68.50943 4.73435,-10.95418 10.88889,-9.09753 9.18393,2.6921 -1.70372,11.88247 -10.50958,40.10328 -19.31666,68.23132"
       style="fill:#ffffff;stroke:#000000;stroke-width:4.03152943px;stroke-linecap:butt;stroke-linejoin:round;stroke-miterlimit:10;stroke-dasharray:none;stroke-opacity:1" />
    <path
       inkscape:connector-curvature="0"
       id="path4806"
       d="m 219.605,433.34982 c 15.90797,-25.25005 31.81599,-50.40745 39.76995,-59.41216 7.95402,-9.00462 13.16215,-5.38428 7.85951,5.38424 -5.30269,10.67565 -22.63087,34.81194 -39.86451,59.04119 z"
       style="fill:#ffffff;fill-opacity:1;fill-rule:evenodd;stroke:none" />
    <path
       inkscape:connector-curvature="0"
       id="path4808"
       d="m 219.605,433.34982 c 15.90797,-25.25005 31.81599,-50.40745 39.76995,-59.41216 7.95402,-9.00462 13.16215,-5.38428 7.85951,5.38424 -5.30269,10.67565 -22.63087,34.81194 -39.86451,59.04119"
       style="fill:#ffffff;stroke:#000000;stroke-width:4.03152943px;stroke-linecap:butt;stroke-linejoin:round;stroke-miterlimit:10;stroke-dasharray:none;stroke-opacity:1" />
    <path
       inkscape:connector-curvature="0"
       id="path4810"
       d="m 190.81962,423.60247 c 3.78798,-38.43217 7.67046,-76.86448 11.64744,-91.90325 4.07153,-15.0387 12.30905,-13.73906 12.30905,1.76376 0.0945,15.59577 -5.9655,53.6568 -11.93099,91.62446 z"
       style="fill:#ffffff;fill-opacity:1;fill-rule:evenodd;stroke:none" />
    <path
       inkscape:connector-curvature="0"
       id="path4812"
       d="m 190.81962,423.60247 c 3.78798,-38.43217 7.67046,-76.86448 11.64744,-91.90325 4.07153,-15.0387 12.30905,-13.73906 12.30905,1.76376 0.0945,15.59577 -5.9655,53.6568 -11.93099,91.62446"
       style="fill:#ffffff;stroke:#000000;stroke-width:4.03152943px;stroke-linecap:butt;stroke-linejoin:round;stroke-miterlimit:10;stroke-dasharray:none;stroke-opacity:1" />
    <path
       inkscape:connector-curvature="0"
       id="path4814"
       d="m 221.87826,436.22827 c 24.33579,-30.35643 48.67033,-60.8053 60.22328,-71.29523 11.64624,-10.58284 17.89648,-5.19856 9.46867,7.98356 -8.52227,13.18199 -34.46727,42.05276 -60.31777,70.92304 z"
       style="fill:#ffffff;fill-opacity:1;fill-rule:evenodd;stroke:none" />
    <path
       inkscape:connector-curvature="0"
       id="path4816"
       d="m 221.87826,436.22827 c 24.33579,-30.35643 48.67033,-60.8053 60.22328,-71.29523 11.64624,-10.58284 17.89648,-5.19856 9.46867,7.98356 -8.52227,13.18199 -34.46727,42.05276 -60.31777,70.92304"
       style="fill:#ffffff;stroke:#000000;stroke-width:4.03152943px;stroke-linecap:butt;stroke-linejoin:round;stroke-miterlimit:10;stroke-dasharray:none;stroke-opacity:1" />
    <path
       inkscape:connector-curvature="0"
       id="path4818"
       d="m 224.05578,440.40522 c 31.53245,-32.5839 63.06365,-65.16792 77.74051,-76.12202 14.58231,-10.95418 21.21066,-4.0846 9.94247,10.30426 -11.26814,14.29612 -44.40979,44.93074 -77.64596,75.65772 z"
       style="fill:#ffffff;fill-opacity:1;fill-rule:evenodd;stroke:none" />
    <path
       inkscape:connector-curvature="0"
       id="path4820"
       d="m 224.05578,440.40522 c 31.53245,-32.5839 63.06365,-65.16792 77.74051,-76.12202 14.58231,-10.95418 21.21066,-4.0846 9.94247,10.30426 -11.26814,14.29612 -44.40979,44.93074 -77.64596,75.65772"
       style="fill:#ffffff;stroke:#000000;stroke-width:4.03152943px;stroke-linecap:butt;stroke-linejoin:round;stroke-miterlimit:10;stroke-dasharray:none;stroke-opacity:1" />
    <path
       inkscape:connector-curvature="0"
       id="path4822"
       d="m 240.43756,443.09714 c 21.21067,-10.0253 42.32682,-20.14447 51.4162,-22.83645 9.09067,-2.69192 10.98464,1.85684 2.93613,6.68358 -8.04853,4.92057 -29.73299,13.73894 -51.32291,22.65111 z"
       style="fill:#ffffff;fill-opacity:1;fill-rule:evenodd;stroke:none" />
    <path
       inkscape:connector-curvature="0"
       id="path4824"
       d="m 240.43756,443.09714 c 21.21067,-10.0253 42.32682,-20.14447 51.4162,-22.83645 9.09067,-2.69192 10.98464,1.85684 2.93613,6.68358 -8.04853,4.92057 -29.73299,13.73894 -51.32291,22.65111"
       style="fill:#ffffff;stroke:#000000;stroke-width:4.03152943px;stroke-linecap:butt;stroke-linejoin:round;stroke-miterlimit:10;stroke-dasharray:none;stroke-opacity:1" />
    <path
       inkscape:connector-curvature="0"
       id="path4826"
       d="m 244.9829,455.62908 c 22.34607,-7.24068 44.69335,-14.48142 53.97301,-16.05905 9.37418,-1.48615 10.69984,3.24912 1.98852,7.0554 -8.61687,3.80509 -31.24769,9.84001 -53.87852,15.8737 z"
       style="fill:#ffffff;fill-opacity:1;fill-rule:evenodd;stroke:none" />
    <path
       inkscape:connector-curvature="0"
       id="path4828"
       d="m 244.9829,455.62908 c 22.34607,-7.24068 44.69335,-14.48142 53.97301,-16.05905 9.37418,-1.48615 10.69984,3.24912 1.98852,7.0554 -8.61687,3.80509 -31.24769,9.84001 -53.87852,15.8737"
       style="fill:#ffffff;stroke:#000000;stroke-width:4.03152943px;stroke-linecap:butt;stroke-linejoin:round;stroke-miterlimit:10;stroke-dasharray:none;stroke-opacity:1" />
    <path
       inkscape:connector-curvature="0"
       id="path4830"
       d="m 244.32004,449.87455 c 27.64877,-11.97597 55.20418,-24.04344 66.94612,-27.01453 11.74079,-3.06383 14.01402,2.78457 3.40872,8.72567 -10.51083,5.8484 -38.63334,16.33938 -66.85162,26.73654 z"
       style="fill:#ffffff;fill-opacity:1;fill-rule:evenodd;stroke:none" />
    <path
       inkscape:connector-curvature="0"
       id="path4832"
       d="m 244.32004,449.87455 c 27.64877,-11.97597 55.20418,-24.04344 66.94612,-27.01453 11.74079,-3.06383 14.01402,2.78457 3.40872,8.72567 -10.51083,5.8484 -38.63334,16.33938 -66.85162,26.73654"
       style="fill:#ffffff;stroke:#000000;stroke-width:4.03152943px;stroke-linecap:butt;stroke-linejoin:round;stroke-miterlimit:10;stroke-dasharray:none;stroke-opacity:1" />
    <path
       inkscape:connector-curvature="0"
       id="path4834"
       d="m 236.55508,438.45574 c 25.66145,-15.68842 51.22719,-31.37716 62.40083,-36.11159 11.17364,-4.64153 14.29876,0.92841 4.73434,8.16922 -9.65772,7.33338 -35.98203,21.62946 -62.40079,35.83289 z"
       style="fill:#ffffff;fill-opacity:1;fill-rule:evenodd;stroke:none" />
    <path
       inkscape:connector-curvature="0"
       id="path4836"
       d="m 236.55508,438.45574 c 25.66145,-15.68842 51.22719,-31.37716 62.40083,-36.11159 11.17364,-4.64153 14.29876,0.92841 4.73434,8.16922 -9.65772,7.33338 -35.98203,21.62946 -62.40079,35.83289"
       style="fill:#ffffff;stroke:#000000;stroke-width:4.03152943px;stroke-linecap:butt;stroke-linejoin:round;stroke-miterlimit:10;stroke-dasharray:none;stroke-opacity:1" />
    <path
       inkscape:connector-curvature="0"
       id="path4838"
       d="m 247.63421,461.47748 c 29.35369,-7.14804 58.70737,-14.38872 70.7329,-15.40921 12.12124,-1.02165 13.35236,5.10592 1.89397,9.19018 -11.45719,4.08426 -41.00112,9.56203 -70.54385,15.13126 z"
       style="fill:#ffffff;fill-opacity:1;fill-rule:evenodd;stroke:none" />
    <path
       inkscape:connector-curvature="0"
       id="path4840"
       d="m 247.63421,461.47748 c 29.35369,-7.14804 58.70737,-14.38872 70.7329,-15.40921 12.12124,-1.02165 13.35236,5.10592 1.89397,9.19018 -11.45719,4.08426 -41.00112,9.56203 -70.54385,15.13126"
       style="fill:#ffffff;stroke:#000000;stroke-width:4.03152943px;stroke-linecap:butt;stroke-linejoin:round;stroke-miterlimit:10;stroke-dasharray:none;stroke-opacity:1" />
    <path
       inkscape:connector-curvature="0"
       id="path4842"
       d="m 233.90376,434.83481 c 30.11103,-24.97124 60.12877,-49.85019 73.66897,-57.92652 13.54141,-8.07633 18.65385,-1.48532 7.57592,9.65455 -10.9846,11.23255 -42.32679,34.44035 -73.67018,57.55595 z"
       style="fill:#ffffff;fill-opacity:1;fill-rule:evenodd;stroke:none" />
    <path
       inkscape:connector-curvature="0"
       id="path4844"
       d="m 233.90376,434.83481 c 30.11103,-24.97124 60.12877,-49.85019 73.66897,-57.92652 13.54141,-8.07633 18.65385,-1.48532 7.57592,9.65455 -10.9846,11.23255 -42.32679,34.44035 -73.67018,57.55595"
       style="fill:#ffffff;stroke:#000000;stroke-width:4.03152943px;stroke-linecap:butt;stroke-linejoin:round;stroke-miterlimit:10;stroke-dasharray:none;stroke-opacity:1" />
    <path
       inkscape:connector-curvature="0"
       id="path4846"
       d="m 247.25496,465.09846 c 39.0126,-5.19861 78.11976,-10.30451 93.93323,-9.93266 15.81348,0.37042 16.47629,8.44768 1.04091,12.16008 -15.43421,3.62098 -54.54137,6.59207 -93.64848,9.56203 z"
       style="fill:#ffffff;fill-opacity:1;fill-rule:evenodd;stroke:none" />
    <path
       inkscape:connector-curvature="0"
       id="path4848"
       d="m 247.25496,465.09846 c 39.0126,-5.19861 78.11976,-10.30451 93.93323,-9.93266 15.81348,0.37042 16.47629,8.44768 1.04091,12.16008 -15.43421,3.62098 -54.54137,6.59207 -93.64848,9.56203"
       style="fill:#ffffff;stroke:#000000;stroke-width:4.03152943px;stroke-linecap:butt;stroke-linejoin:round;stroke-miterlimit:10;stroke-dasharray:none;stroke-opacity:1" />
    <path
       transform="matrix(1.2117604,0,0,1.1879748,12.517575,297.4443)"
       inkscape:connector-curvature="0"
       id="path4850"
       d="m 192.544,144.955 c 37.821,-1.563 75.564,-3.048 90.646,-1.328 15.081,1.797 15.003,9.767 -0.078,11.955 -15.082,2.188 -52.747,1.641 -90.412,1.016 z"
       clip-path="url(#clipEmfPath1-5)"
       style="fill:#ffffff;fill-opacity:1;fill-rule:evenodd;stroke:none" />
    <path
       transform="matrix(1.2117604,0,0,1.1879748,12.517575,297.4443)"
       inkscape:connector-curvature="0"
       id="path4852"
       d="m 192.544,144.955 c 37.821,-1.563 75.564,-3.048 90.646,-1.328 15.081,1.797 15.003,9.767 -0.078,11.955 -15.082,2.188 -52.747,1.641 -90.412,1.016"
       clip-path="url(#clipEmfPath1-5)"
       style="fill:#ffffff;stroke:#000000;stroke-width:3.36014342px;stroke-linecap:butt;stroke-linejoin:round;stroke-miterlimit:10;stroke-dasharray:none;stroke-opacity:1" />
    <path
       inkscape:connector-curvature="0"
       id="path4854"
       d="m 231.72624,518.19839 c 9.94248,20.88727 19.88496,41.77411 22.53632,50.68616 2.65132,8.91122 -1.98851,10.67537 -6.9131,2.78492 -4.82888,-7.98348 -13.5402,-29.33503 -22.34607,-50.68616 z"
       style="fill:#ffffff;fill-opacity:1;fill-rule:evenodd;stroke:none" />
    <path
       inkscape:connector-curvature="0"
       id="path4856"
       d="m 231.72624,518.19839 c 9.94248,20.88727 19.88496,41.77411 22.53632,50.68616 2.65132,8.91122 -1.98851,10.67537 -6.9131,2.78492 -4.82888,-7.98348 -13.5402,-29.33503 -22.34607,-50.68616"
       style="fill:#ffffff;stroke:#000000;stroke-width:4.03152943px;stroke-linecap:butt;stroke-linejoin:round;stroke-miterlimit:10;stroke-dasharray:none;stroke-opacity:1" />
    <path
       inkscape:connector-curvature="0"
       id="path4858"
       d="m 217.80673,523.39695 c 7.10091,22.00149 14.20306,44.0017 15.62322,53.19284 1.42021,9.1903 -3.40868,10.39712 -7.19665,1.85591 -3.78673,-8.54037 -9.56319,-30.81968 -15.33967,-53.09898 z"
       style="fill:#ffffff;fill-opacity:1;fill-rule:evenodd;stroke:none" />
    <path
       inkscape:connector-curvature="0"
       id="path4860"
       d="m 217.80673,523.39695 c 7.10091,22.00149 14.20306,44.0017 15.62322,53.19284 1.42021,9.1903 -3.40868,10.39712 -7.19665,1.85591 -3.78673,-8.54037 -9.56319,-30.81968 -15.33967,-53.09898"
       style="fill:#ffffff;stroke:#000000;stroke-width:4.03152943px;stroke-linecap:butt;stroke-linejoin:round;stroke-miterlimit:10;stroke-dasharray:none;stroke-opacity:1" />
    <path
       inkscape:connector-curvature="0"
       id="path4862"
       d="m 223.67773,522.84006 c 11.93099,27.19961 23.76623,54.49226 26.70235,66.00275 2.93487,11.60394 -3.12512,13.73978 -8.99611,3.24878 -5.871,-10.39711 -16.09703,-38.15279 -26.32306,-65.90972 z"
       style="fill:#ffffff;fill-opacity:1;fill-rule:evenodd;stroke:none" />
    <path
       inkscape:connector-curvature="0"
       id="path4864"
       d="m 223.67773,522.84006 c 11.93099,27.19961 23.76623,54.49226 26.70235,66.00275 2.93487,11.60394 -3.12512,13.73978 -8.99611,3.24878 -5.871,-10.39711 -16.09703,-38.15279 -26.32306,-65.90972"
       style="fill:#ffffff;stroke:#000000;stroke-width:4.03152943px;stroke-linecap:butt;stroke-linejoin:round;stroke-miterlimit:10;stroke-dasharray:none;stroke-opacity:1" />
    <path
       inkscape:connector-curvature="0"
       id="path4866"
       d="m 236.46058,514.39229 c 15.71897,25.34287 31.34219,50.68617 35.88748,61.73321 4.63984,11.04704 -1.04211,13.92414 -8.33327,4.45603 -7.38566,-9.56199 -21.49421,-35.55479 -35.60273,-61.6406 z"
       style="fill:#ffffff;fill-opacity:1;fill-rule:evenodd;stroke:none" />
    <path
       inkscape:connector-curvature="0"
       id="path4868"
       d="m 236.46058,514.39229 c 15.71897,25.34287 31.34219,50.68617 35.88748,61.73321 4.63984,11.04704 -1.04211,13.92414 -8.33327,4.45603 -7.38566,-9.56199 -21.49421,-35.55479 -35.60273,-61.6406"
       style="fill:#ffffff;stroke:#000000;stroke-width:4.03152943px;stroke-linecap:butt;stroke-linejoin:round;stroke-miterlimit:10;stroke-dasharray:none;stroke-opacity:1" />
    <path
       inkscape:connector-curvature="0"
       id="path4870"
       d="m 211.84124,525.90363 c 6.91189,28.87031 13.82496,57.74062 14.67686,69.62365 0.85185,11.88218 -5.39719,12.90379 -9.37417,1.67027 -3.97704,-11.32486 -9.18517,-40.38165 -14.39332,-69.43802 z"
       style="fill:#ffffff;fill-opacity:1;fill-rule:evenodd;stroke:none" />
    <path
       inkscape:connector-curvature="0"
       id="path4872"
       d="m 211.84124,525.90363 c 6.91189,28.87031 13.82496,57.74062 14.67686,69.62365 0.85185,11.88218 -5.39719,12.90379 -9.37417,1.67027 -3.97704,-11.32486 -9.18517,-40.38165 -14.39332,-69.43802"
       style="fill:#ffffff;stroke:#000000;stroke-width:4.03152943px;stroke-linecap:butt;stroke-linejoin:round;stroke-miterlimit:10;stroke-dasharray:none;stroke-opacity:1" />
    <path
       inkscape:connector-curvature="0"
       id="path4874"
       d="m 240.24855,511.88566 c 24.9974,29.79928 49.996,59.69078 58.04451,73.05802 7.95401,13.36851 1.23116,18.19497 -10.03699,7.24179 -11.26817,-10.95402 -34.46731,-41.96016 -57.57194,-73.05891 z"
       style="fill:#ffffff;fill-opacity:1;fill-rule:evenodd;stroke:none" />
    <path
       inkscape:connector-curvature="0"
       id="path4876"
       d="m 240.24855,511.88566 c 24.9974,29.79928 49.996,59.69078 58.04451,73.05802 7.95401,13.36851 1.23116,18.19497 -10.03699,7.24179 -11.26817,-10.95402 -34.46731,-41.96016 -57.57194,-73.05891"
       style="fill:#ffffff;stroke:#000000;stroke-width:4.03152943px;stroke-linecap:butt;stroke-linejoin:round;stroke-miterlimit:10;stroke-dasharray:none;stroke-opacity:1" />
    <path
       inkscape:connector-curvature="0"
       id="path4878"
       d="m 208.1478,525.43934 c 4.73434,38.33927 9.46868,76.77156 8.80587,92.27463 -0.5671,15.50307 -8.90042,15.96652 -12.4036,0.83513 -3.50442,-15.22399 -5.96549,-53.56326 -8.42781,-91.99555 z"
       style="fill:#ffffff;fill-opacity:1;fill-rule:evenodd;stroke:none" />
    <path
       inkscape:connector-curvature="0"
       id="path4880"
       d="m 208.1478,525.43934 c 4.73434,38.33927 9.46868,76.77156 8.80587,92.27463 -0.5671,15.50307 -8.90042,15.96652 -12.4036,0.83513 -3.50442,-15.22399 -5.96549,-53.56326 -8.42781,-91.99555"
       style="fill:#ffffff;stroke:#000000;stroke-width:4.03152943px;stroke-linecap:butt;stroke-linejoin:round;stroke-miterlimit:10;stroke-dasharray:none;stroke-opacity:1" />
    <path
       inkscape:connector-curvature="0"
       id="path4882"
       d="m 249.71723,483.57144 c 22.06252,7.79788 44.22079,15.68959 52.45831,20.14448 8.33332,4.54876 6.3448,9.00487 -2.84037,6.77741 -9.18512,-2.3213 -30.77505,-11.32613 -52.26926,-20.32982 z"
       style="fill:#ffffff;fill-opacity:1;fill-rule:evenodd;stroke:none" />
    <path
       inkscape:connector-curvature="0"
       id="path4884"
       d="m 249.71723,483.57144 c 22.06252,7.79788 44.22079,15.68959 52.45831,20.14448 8.33332,4.54876 6.3448,9.00487 -2.84037,6.77741 -9.18512,-2.3213 -30.77505,-11.32613 -52.26926,-20.32982"
       style="fill:#ffffff;stroke:#000000;stroke-width:4.03152943px;stroke-linecap:butt;stroke-linejoin:round;stroke-miterlimit:10;stroke-dasharray:none;stroke-opacity:1" />
    <path
       inkscape:connector-curvature="0"
       id="path4886"
       d="m 243.65723,495.45476 c 20.92587,10.67515 41.75848,21.25773 49.42769,26.82798 7.57595,5.47679 5.01913,9.65458 -3.78674,6.22016 -8.80706,-3.34264 -28.97561,-15.13231 -49.14538,-26.82911 z"
       style="fill:#ffffff;fill-opacity:1;fill-rule:evenodd;stroke:none" />
    <path
       inkscape:connector-curvature="0"
       id="path4888"
       d="m 243.65723,495.45476 c 20.92587,10.67515 41.75848,21.25773 49.42769,26.82798 7.57595,5.47679 5.01913,9.65458 -3.78674,6.22016 -8.80706,-3.34264 -28.97561,-15.13231 -49.14538,-26.82911"
       style="fill:#ffffff;stroke:#000000;stroke-width:4.03152943px;stroke-linecap:butt;stroke-linejoin:round;stroke-miterlimit:10;stroke-dasharray:none;stroke-opacity:1" />
    <path
       inkscape:connector-curvature="0"
       id="path4890"
       d="m 247.44396,490.99869 c 28.02923,11.04696 56.05724,22.09391 66.47357,28.22047 10.41508,6.12756 7.66921,11.78916 -4.07153,8.44777 -11.64744,-3.2492 -38.9181,-15.78127 -66.09427,-28.31325 z"
       style="fill:#ffffff;fill-opacity:1;fill-rule:evenodd;stroke:none" />
    <path
       inkscape:connector-curvature="0"
       id="path4892"
       d="m 247.44396,490.99869 c 28.02923,11.04696 56.05724,22.09391 66.47357,28.22047 10.41508,6.12756 7.66921,11.78916 -4.07153,8.44777 -11.64744,-3.2492 -38.9181,-15.78127 -66.09427,-28.31325"
       style="fill:#ffffff;stroke:#000000;stroke-width:4.03152943px;stroke-linecap:butt;stroke-linejoin:round;stroke-miterlimit:10;stroke-dasharray:none;stroke-opacity:1" />
    <path
       inkscape:connector-curvature="0"
       id="path4894"
       d="m 250.38008,477.53775 c 29.35368,7.05535 58.70736,14.11074 69.881,18.75214 11.17363,4.64146 9.37417,10.67515 -2.74587,9.00488 -12.02549,-1.6715 -40.81087,-10.30452 -69.59744,-18.93754 z"
       style="fill:#ffffff;fill-opacity:1;fill-rule:evenodd;stroke:none" />
    <path
       inkscape:connector-curvature="0"
       id="path4896"
       d="m 250.38008,477.53775 c 29.35368,7.05535 58.70736,14.11074 69.881,18.75214 11.17363,4.64146 9.37417,10.67515 -2.74587,9.00488 -12.02549,-1.6715 -40.81087,-10.30452 -69.59744,-18.93754"
       style="fill:#ffffff;stroke:#000000;stroke-width:4.03152943px;stroke-linecap:butt;stroke-linejoin:round;stroke-miterlimit:10;stroke-dasharray:none;stroke-opacity:1" />
    <path
       inkscape:connector-curvature="0"
       id="path4898"
       d="m 241.28946,501.39581 c 25.66145,15.59576 51.3229,31.19144 60.50683,38.98928 9.18512,7.79783 5.5874,12.90379 -5.3972,7.70523 -10.98338,-5.19856 -35.60272,-22.18669 -60.22327,-39.08197 z"
       style="fill:#ffffff;fill-opacity:1;fill-rule:evenodd;stroke:none" />
    <path
       inkscape:connector-curvature="0"
       id="path4900"
       d="m 241.28946,501.39581 c 25.66145,15.59576 51.3229,31.19144 60.50683,38.98928 9.18512,7.79783 5.5874,12.90379 -5.3972,7.70523 -10.98338,-5.19856 -35.60272,-22.18669 -60.22327,-39.08197"
       style="fill:#ffffff;stroke:#000000;stroke-width:4.03152943px;stroke-linecap:butt;stroke-linejoin:round;stroke-miterlimit:10;stroke-dasharray:none;stroke-opacity:1" />
    <path
       inkscape:connector-curvature="0"
       id="path4902"
       d="m 250.19103,474.10328 c 39.20166,3.80628 78.40332,7.61255 93.74299,11.51147 15.33967,3.89896 14.01401,11.97478 -1.89396,12.06748 -15.81348,0.0926 -54.63588,-5.84841 -93.36494,-11.69681 z"
       style="fill:#ffffff;fill-opacity:1;fill-rule:evenodd;stroke:none" />
    <path
       inkscape:connector-curvature="0"
       id="path4904"
       d="m 250.19103,474.10328 c 39.20166,3.80628 78.40332,7.61255 93.74299,11.51147 15.33967,3.89896 14.01401,11.97478 -1.89396,12.06748 -15.81348,0.0926 -54.63588,-5.84841 -93.36494,-11.69681"
       style="fill:#ffffff;stroke:#000000;stroke-width:4.03152943px;stroke-linecap:butt;stroke-linejoin:round;stroke-miterlimit:10;stroke-dasharray:none;stroke-opacity:1" />
    <path
       inkscape:connector-curvature="0"
       id="path4906"
       d="m 238.35455,503.62327 c 30.96293,23.85802 61.92703,47.71625 72.72141,59.13372 10.70103,11.32613 5.20813,17.45285 -8.14306,9.1903 -13.44571,-8.3539 -42.89509,-33.79064 -72.34332,-59.13384 z"
       style="fill:#ffffff;fill-opacity:1;fill-rule:evenodd;stroke:none" />
    <path
       inkscape:connector-curvature="0"
       id="path4908"
       d="m 238.35455,503.62327 c 30.96293,23.85802 61.92703,47.71625 72.72141,59.13372 10.70103,11.32613 5.20813,17.45285 -8.14306,9.1903 -13.44571,-8.3539 -42.89509,-33.79064 -72.34332,-59.13384"
       style="fill:#ffffff;stroke:#000000;stroke-width:4.03152943px;stroke-linecap:butt;stroke-linejoin:round;stroke-miterlimit:10;stroke-dasharray:none;stroke-opacity:1" />
    <path
       inkscape:connector-curvature="0"
       id="path4910"
       d="m 233.99826,505.85192 c 33.2362,30.81967 66.47236,61.7332 77.646,76.12206 11.26814,14.29583 4.16723,20.79423 -10.41508,9.74719 -14.58231,-11.04704 -45.92571,-43.53825 -77.1734,-76.12193 z"
       style="fill:#ffffff;fill-opacity:1;fill-rule:evenodd;stroke:none" />
    <path
       inkscape:connector-curvature="0"
       id="path4912"
       d="m 233.99826,505.85192 c 33.2362,30.81967 66.47236,61.7332 77.646,76.12206 11.26814,14.29583 4.16723,20.79423 -10.41508,9.74719 -14.58231,-11.04704 -45.92571,-43.53825 -77.1734,-76.12193"
       style="fill:#ffffff;stroke:#000000;stroke-width:4.03152943px;stroke-linecap:butt;stroke-linejoin:round;stroke-miterlimit:10;stroke-dasharray:none;stroke-opacity:1" />
    <path
       inkscape:connector-curvature="0"
       id="path4914"
       d="m 191.19892,525.53194 c -8.04975,21.62937 -16.00373,43.35261 -20.64356,51.42869 -4.54413,8.16953 -9.18393,6.22018 -6.81735,-2.78449 2.27322,-9.00508 11.45718,-30.17101 20.73681,-51.24348 z"
       style="fill:#ffffff;fill-opacity:1;fill-rule:evenodd;stroke:none" />
    <path
       inkscape:connector-curvature="0"
       id="path4916"
       d="m 191.19892,525.53194 c -8.04975,21.62937 -16.00373,43.35261 -20.64356,51.42869 -4.54413,8.16953 -9.18393,6.22018 -6.81735,-2.78449 2.27322,-9.00508 11.45718,-30.17101 20.73681,-51.24348"
       style="fill:#ffffff;stroke:#000000;stroke-width:4.03152943px;stroke-linecap:butt;stroke-linejoin:round;stroke-miterlimit:10;stroke-dasharray:none;stroke-opacity:1" />
    <path
       inkscape:connector-curvature="0"
       id="path4918"
       d="m 179.07768,519.59085 c -10.88889,20.51515 -21.77898,40.93896 -27.36522,48.45731 -5.58619,7.42741 -9.94247,4.92074 -6.43929,-3.71224 3.50442,-8.63423 15.43542,-28.40686 27.46091,-48.17949 z"
       style="fill:#ffffff;fill-opacity:1;fill-rule:evenodd;stroke:none" />
    <path
       inkscape:connector-curvature="0"
       id="path4920"
       d="m 179.07768,519.59085 c -10.88889,20.51515 -21.77898,40.93896 -27.36522,48.45731 -5.58619,7.42741 -9.94247,4.92074 -6.43929,-3.71224 3.50442,-8.63423 15.43542,-28.40686 27.46091,-48.17949"
       style="fill:#ffffff;stroke:#000000;stroke-width:4.03152943px;stroke-linecap:butt;stroke-linejoin:round;stroke-miterlimit:10;stroke-dasharray:none;stroke-opacity:1" />
    <path
       inkscape:connector-curvature="0"
       id="path4922"
       d="m 183.62297,523.30435 c -11.26814,27.47785 -22.53633,54.95571 -28.78538,65.16762 -6.25025,10.21191 -12.02549,7.51875 -8.71132,-3.99173 3.40868,-11.41874 16.19153,-38.15407 28.97438,-64.88939 z"
       style="fill:#ffffff;fill-opacity:1;fill-rule:evenodd;stroke:none" />
    <path
       inkscape:connector-curvature="0"
       id="path4924"
       d="m 183.62297,523.30435 c -11.26814,27.47785 -22.53633,54.95571 -28.78538,65.16762 -6.25025,10.21191 -12.02549,7.51875 -8.71132,-3.99173 3.40868,-11.41874 16.19153,-38.15407 28.97438,-64.88939"
       style="fill:#ffffff;stroke:#000000;stroke-width:4.03152943px;stroke-linecap:butt;stroke-linejoin:round;stroke-miterlimit:10;stroke-dasharray:none;stroke-opacity:1" />
    <path
       inkscape:connector-curvature="0"
       id="path4926"
       d="m 197.25892,526.18187 c -7.19665,28.77728 -14.39331,57.55625 -19.12765,68.509 -4.63983,10.95444 -10.79433,9.19157 -9.09062,-2.69188 1.70496,-11.78915 10.51083,-40.00954 19.22215,-68.23119 z"
       style="fill:#ffffff;fill-opacity:1;fill-rule:evenodd;stroke:none" />
    <path
       inkscape:connector-curvature="0"
       id="path4928"
       d="m 197.25892,526.18187 c -7.19665,28.77728 -14.39331,57.55625 -19.12765,68.509 -4.63983,10.95444 -10.79433,9.19157 -9.09062,-2.69188 1.70496,-11.78915 10.51083,-40.00954 19.22215,-68.23119"
       style="fill:#ffffff;stroke:#000000;stroke-width:4.03152943px;stroke-linecap:butt;stroke-linejoin:round;stroke-miterlimit:10;stroke-dasharray:none;stroke-opacity:1" />
    <path
       inkscape:connector-curvature="0"
       id="path4930"
       d="m 173.01763,517.26938 c -16.00248,25.15808 -31.9105,50.31574 -39.86446,59.32041 -7.85926,9.00382 -13.1619,5.47679 -7.85926,-5.29243 5.39733,-10.76755 22.63062,-34.90358 39.86426,-59.03989 z"
       style="fill:#ffffff;fill-opacity:1;fill-rule:evenodd;stroke:none" />
    <path
       inkscape:connector-curvature="0"
       id="path4932"
       d="m 173.01763,517.26938 c -16.00248,25.15808 -31.9105,50.31574 -39.86446,59.32041 -7.85926,9.00382 -13.1619,5.47679 -7.85926,-5.29243 5.39733,-10.76755 22.63062,-34.90358 39.86426,-59.03989"
       style="fill:#ffffff;stroke:#000000;stroke-width:4.03152943px;stroke-linecap:butt;stroke-linejoin:round;stroke-miterlimit:10;stroke-dasharray:none;stroke-opacity:1" />
    <path
       inkscape:connector-curvature="0"
       id="path4934"
       d="m 201.80421,527.01701 c -3.88249,38.43187 -7.67041,76.86543 -11.74194,91.81118 -3.97699,15.03878 -12.21575,13.83195 -12.31026,-1.76414 0,-15.59569 5.9655,-53.56452 12.0255,-91.53211 z"
       style="fill:#ffffff;fill-opacity:1;fill-rule:evenodd;stroke:none" />
    <path
       inkscape:connector-curvature="0"
       id="path4936"
       d="m 201.80421,527.01701 c -3.88249,38.43187 -7.67041,76.86543 -11.74194,91.81118 -3.97699,15.03878 -12.21575,13.83195 -12.31026,-1.76414 0,-15.59569 5.9655,-53.56452 12.0255,-91.53211"
       style="fill:#ffffff;stroke:#000000;stroke-width:4.03152943px;stroke-linecap:butt;stroke-linejoin:round;stroke-miterlimit:10;stroke-dasharray:none;stroke-opacity:1" />
    <path
       inkscape:connector-curvature="0"
       id="path4938"
       d="m 170.74561,514.39229 c -24.33579,30.35622 -48.67123,60.7116 -60.31816,71.29518 -11.64684,10.48973 -17.89649,5.10469 -9.37431,-7.9843 8.42744,-13.18203 34.37205,-42.05193 60.31829,-70.92342 z"
       style="fill:#ffffff;fill-opacity:1;fill-rule:evenodd;stroke:none" />
    <path
       inkscape:connector-curvature="0"
       id="path4940"
       d="m 170.74561,514.39229 c -24.33579,30.35622 -48.67123,60.7116 -60.31816,71.29518 -11.64684,10.48973 -17.89649,5.10469 -9.37431,-7.9843 8.42744,-13.18203 34.37205,-42.05193 60.31829,-70.92342"
       style="fill:#ffffff;stroke:#000000;stroke-width:4.03152943px;stroke-linecap:butt;stroke-linejoin:round;stroke-miterlimit:10;stroke-dasharray:none;stroke-opacity:1" />
    <path
       inkscape:connector-curvature="0"
       id="path4942"
       d="M 168.47234,510.12151 C 136.94111,542.70528 105.40892,575.29036 90.8266,586.24353 76.244285,597.29016 69.521175,590.32872 80.789359,576.0329 92.0575,561.73664 125.29391,531.00832 158.52982,500.37416 Z"
       style="fill:#ffffff;fill-opacity:1;fill-rule:evenodd;stroke:none" />
    <path
       inkscape:connector-curvature="0"
       id="path4944"
       d="M 168.47234,510.12151 C 136.94111,542.70528 105.40892,575.29036 90.8266,586.24353 76.244285,597.29016 69.521175,590.32872 80.789359,576.0329 92.0575,561.73664 125.29391,531.00832 158.52982,500.37416"
       style="fill:#ffffff;stroke:#000000;stroke-width:4.03152943px;stroke-linecap:butt;stroke-linejoin:round;stroke-miterlimit:10;stroke-dasharray:none;stroke-opacity:1" />
    <path
       inkscape:connector-curvature="0"
       id="path4946"
       d="m 152.09177,507.42955 c -21.11651,10.11934 -42.32717,20.23738 -51.32269,22.92926 -9.090364,2.69315 -10.984117,-1.85591 -2.935475,-6.77622 8.048775,-4.82688 29.638085,-13.73906 51.322035,-22.55859 z"
       style="fill:#ffffff;fill-opacity:1;fill-rule:evenodd;stroke:none" />
    <path
       inkscape:connector-curvature="0"
       id="path4948"
       d="m 152.09177,507.42955 c -21.11651,10.11934 -42.32717,20.23738 -51.32269,22.92926 -9.090364,2.69315 -10.984117,-1.85591 -2.935475,-6.77622 8.048775,-4.82688 29.638085,-13.73906 51.322035,-22.55859"
       style="fill:#ffffff;stroke:#000000;stroke-width:4.03152943px;stroke-linecap:butt;stroke-linejoin:round;stroke-miterlimit:10;stroke-dasharray:none;stroke-opacity:1" />
    <path
       inkscape:connector-curvature="0"
       id="path4950"
       d="m 147.54644,494.89761 c -22.25253,7.33338 -44.59959,14.57406 -53.973887,16.06022 -9.279627,1.48498 -10.605289,-3.15643 -1.988469,-7.05539 8.616816,-3.80627 31.247776,-9.74732 53.879336,-15.78224 z"
       style="fill:#ffffff;fill-opacity:1;fill-rule:evenodd;stroke:none" />
    <path
       inkscape:connector-curvature="0"
       id="path4952"
       d="m 147.54644,494.89761 c -22.25253,7.33338 -44.59959,14.57406 -53.973887,16.06022 -9.279627,1.48498 -10.605289,-3.15643 -1.988469,-7.05539 8.616816,-3.80627 31.247776,-9.74732 53.879336,-15.78224"
       style="fill:#ffffff;stroke:#000000;stroke-width:4.03152943px;stroke-linecap:butt;stroke-linejoin:round;stroke-miterlimit:10;stroke-dasharray:none;stroke-opacity:1" />
    <path
       inkscape:connector-curvature="0"
       id="path4954"
       d="m 148.30379,500.65336 c -27.6497,12.06743 -55.299413,24.04344 -67.041014,27.10617 -11.741601,3.06357 -14.014138,-2.78491 -3.408806,-8.726 10.605332,-5.94093 38.72837,-16.33804 66.85089,-26.82789 z"
       style="fill:#ffffff;fill-opacity:1;fill-rule:evenodd;stroke:none" />
    <path
       inkscape:connector-curvature="0"
       id="path4956"
       d="m 148.30379,500.65336 c -27.6497,12.06743 -55.299413,24.04344 -67.041014,27.10617 -11.741601,3.06357 -14.014138,-2.78491 -3.408806,-8.726 10.605332,-5.94093 38.72837,-16.33804 66.85089,-26.82789"
       style="fill:#ffffff;stroke:#000000;stroke-width:4.03152943px;stroke-linecap:butt;stroke-linejoin:round;stroke-miterlimit:10;stroke-dasharray:none;stroke-opacity:1" />
    <path
       inkscape:connector-curvature="0"
       id="path4958"
       d="m 155.97304,512.07095 c -25.56587,15.78245 -51.22693,31.47074 -62.400487,36.11197 -11.173508,4.64167 -14.20353,-0.83513 -4.639791,-8.16952 9.658456,-7.33355 35.982368,-21.53677 62.305898,-35.74028 z"
       style="fill:#ffffff;fill-opacity:1;fill-rule:evenodd;stroke:none" />
    <path
       inkscape:connector-curvature="0"
       id="path4960"
       d="m 155.97304,512.07095 c -25.56587,15.78245 -51.22693,31.47074 -62.400487,36.11197 -11.173508,4.64167 -14.20353,-0.83513 -4.639791,-8.16952 9.658456,-7.33355 35.982368,-21.53677 62.305898,-35.74028"
       style="fill:#ffffff;stroke:#000000;stroke-width:4.03152943px;stroke-linecap:butt;stroke-linejoin:round;stroke-miterlimit:10;stroke-dasharray:none;stroke-opacity:1" />
    <path
       inkscape:connector-curvature="0"
       id="path4962"
       d="m 144.89511,489.14186 c -29.25965,7.14803 -58.613714,14.29607 -70.734099,15.31778 -12.120386,1.11312 -13.256655,-5.10596 -1.799078,-9.09753 11.457534,-4.08543 41.000997,-9.65467 70.544667,-15.13244 z"
       style="fill:#ffffff;fill-opacity:1;fill-rule:evenodd;stroke:none" />
    <path
       inkscape:connector-curvature="0"
       id="path4964"
       d="m 144.89511,489.14186 c -29.25965,7.14803 -58.613714,14.29607 -70.734099,15.31778 -12.120386,1.11312 -13.256655,-5.10596 -1.799078,-9.09753 11.457534,-4.08543 41.000997,-9.65467 70.544667,-15.13244"
       style="fill:#ffffff;stroke:#000000;stroke-width:4.03152943px;stroke-linecap:butt;stroke-linejoin:round;stroke-miterlimit:10;stroke-dasharray:none;stroke-opacity:1" />
    <path
       inkscape:connector-curvature="0"
       id="path4966"
       d="m 158.62437,515.78458 c -30.01628,24.87875 -60.127914,49.85119 -73.668635,57.92685 -13.540678,7.98305 -18.559299,1.48506 -7.575182,-9.7472 11.078749,-11.23225 42.326517,-34.34794 73.669107,-57.46247 z"
       style="fill:#ffffff;fill-opacity:1;fill-rule:evenodd;stroke:none" />
    <path
       inkscape:connector-curvature="0"
       id="path4968"
       d="m 158.62437,515.78458 c -30.01628,24.87875 -60.127914,49.85119 -73.668635,57.92685 -13.540678,7.98305 -18.559299,1.48506 -7.575182,-9.7472 11.078749,-11.23225 42.326517,-34.34794 73.669107,-57.46247"
       style="fill:#ffffff;stroke:#000000;stroke-width:4.03152943px;stroke-linecap:butt;stroke-linejoin:round;stroke-miterlimit:10;stroke-dasharray:none;stroke-opacity:1" />
    <path
       inkscape:connector-curvature="0"
       id="path4970"
       d="m 145.36771,485.52093 c -39.10668,5.10591 -78.119072,10.30447 -93.932417,9.93383 -15.813216,-0.37168 -16.476068,-8.54033 -1.041637,-12.1613 15.43456,-3.62093 54.541714,-6.59089 93.648404,-9.65467 z"
       style="fill:#ffffff;fill-opacity:1;fill-rule:evenodd;stroke:none" />
    <path
       inkscape:connector-curvature="0"
       id="path4972"
       d="m 145.36771,485.52093 c -39.10668,5.10591 -78.119072,10.30447 -93.932417,9.93383 -15.813216,-0.37168 -16.476068,-8.54033 -1.041637,-12.1613 15.43456,-3.62093 54.541714,-6.59089 93.648404,-9.65467"
       style="fill:#ffffff;stroke:#000000;stroke-width:4.03152943px;stroke-linecap:butt;stroke-linejoin:round;stroke-miterlimit:10;stroke-dasharray:none;stroke-opacity:1" />
    <path
       inkscape:connector-curvature="0"
       id="path4974"
       d="m 146.69337,480.97217 c -45.73499,1.76413 -91.470486,3.62093 -109.745632,1.48615 -18.369992,-2.04213 -18.1806,-11.60416 0.09446,-14.11078 18.275275,-2.59928 63.916012,-1.94944 109.461952,-1.29964 z"
       style="fill:#ffffff;fill-opacity:1;fill-rule:evenodd;stroke:none" />
    <path
       transform="matrix(1.2117604,0,0,1.1879748,12.517575,297.4443)"
       inkscape:connector-curvature="0"
       id="path4976"
       d="m 110.728,154.488 c -37.7426,1.485 -75.4856,3.048 -90.5671,1.251 -15.15976,-1.719 -15.00347,-9.768 0.0781,-11.878 15.0816,-2.188 52.7464,-1.641 90.333,-1.094"
       clip-path="url(#clipEmfPath1-5)"
       style="fill:#ffffff;stroke:#000000;stroke-width:3.36014342px;stroke-linecap:butt;stroke-linejoin:round;stroke-miterlimit:10;stroke-dasharray:none;stroke-opacity:1" />
    <path
       inkscape:connector-curvature="0"
       id="path4978"
       d="m 160.89763,432.422 c -10.03702,-20.88744 -19.9795,-41.77465 -22.53632,-50.6865 -2.65132,-8.91181 1.98847,-10.76838 6.81735,-2.78496 4.9246,7.98356 13.63595,29.3349 22.34728,50.59301 z"
       style="fill:#ffffff;fill-opacity:1;fill-rule:evenodd;stroke:none" />
    <path
       inkscape:connector-curvature="0"
       id="path4980"
       d="m 160.89763,432.422 c -10.03702,-20.88744 -19.9795,-41.77465 -22.53632,-50.6865 -2.65132,-8.91181 1.98847,-10.76838 6.81735,-2.78496 4.9246,7.98356 13.63595,29.3349 22.34728,50.59301"
       style="fill:#ffffff;stroke:#000000;stroke-width:4.03152943px;stroke-linecap:butt;stroke-linejoin:round;stroke-miterlimit:10;stroke-dasharray:none;stroke-opacity:1" />
    <path
       inkscape:connector-curvature="0"
       id="path4982"
       d="m 174.72259,427.22344 c -7.10211,-22.00144 -14.20426,-44.00258 -15.52991,-53.19288 -1.42018,-9.19042 3.40867,-10.39716 7.19665,-1.85671 3.69343,8.54059 9.56443,30.82014 15.33966,53.00746 z"
       style="fill:#ffffff;fill-opacity:1;fill-rule:evenodd;stroke:none" />
    <path
       inkscape:connector-curvature="0"
       id="path4984"
       d="m 174.72259,427.22344 c -7.10211,-22.00144 -14.20426,-44.00258 -15.52991,-53.19288 -1.42018,-9.19042 3.40867,-10.39716 7.19665,-1.85671 3.69343,8.54059 9.56443,30.82014 15.33966,53.00746"
       style="fill:#ffffff;stroke:#000000;stroke-width:4.03152943px;stroke-linecap:butt;stroke-linejoin:round;stroke-miterlimit:10;stroke-dasharray:none;stroke-opacity:1" />
    <path
       inkscape:connector-curvature="0"
       id="path4986"
       d="m 168.8516,427.78059 c -11.83645,-27.29303 -23.67294,-54.49277 -26.60781,-66.09667 -2.93612,-11.51113 3.02938,-13.64623 8.90037,-3.24912 5.87099,10.48993 16.19278,38.24662 26.41881,66.00284 z"
       style="fill:#ffffff;fill-opacity:1;fill-rule:evenodd;stroke:none" />
    <path
       inkscape:connector-curvature="0"
       id="path4988"
       d="m 168.8516,427.78059 c -11.83645,-27.29303 -23.67294,-54.49277 -26.60781,-66.09667 -2.93612,-11.51113 3.02938,-13.64623 8.90037,-3.24912 5.87099,10.48993 16.19278,38.24662 26.41881,66.00284"
       style="fill:#ffffff;stroke:#000000;stroke-width:4.03152943px;stroke-linecap:butt;stroke-linejoin:round;stroke-miterlimit:10;stroke-dasharray:none;stroke-opacity:1" />
    <path
       inkscape:connector-curvature="0"
       id="path4990"
       d="m 156.06875,436.13445 c -15.62442,-25.34263 -31.343,-50.68566 -35.88821,-61.63976 -4.54508,-11.04697 1.04163,-14.01764 8.42755,-4.45599 7.29091,9.46891 21.39946,35.55457 35.60368,61.64081 z"
       style="fill:#ffffff;fill-opacity:1;fill-rule:evenodd;stroke:none" />
    <path
       inkscape:connector-curvature="0"
       id="path4992"
       d="m 156.06875,436.13445 c -15.62442,-25.34263 -31.343,-50.68566 -35.88821,-61.63976 -4.54508,-11.04697 1.04163,-14.01764 8.42755,-4.45599 7.29091,9.46891 21.39946,35.55457 35.60368,61.64081"
       style="fill:#ffffff;stroke:#000000;stroke-width:4.03152943px;stroke-linecap:butt;stroke-linejoin:round;stroke-miterlimit:10;stroke-dasharray:none;stroke-opacity:1" />
    <path
       inkscape:connector-curvature="0"
       id="path4994"
       d="m 180.68809,424.62416 c -6.9131,-28.87099 -13.73046,-57.64887 -14.67686,-69.53134 -0.85306,-11.88247 5.49173,-12.99644 9.46872,-1.67091 3.88248,11.23255 9.18513,40.28901 14.39326,69.34541 z"
       style="fill:#ffffff;fill-opacity:1;fill-rule:evenodd;stroke:none" />
    <path
       inkscape:connector-curvature="0"
       id="path4996"
       d="m 180.68809,424.62416 c -6.9131,-28.87099 -13.73046,-57.64887 -14.67686,-69.53134 -0.85306,-11.88247 5.49173,-12.99644 9.46872,-1.67091 3.88248,11.23255 9.18513,40.28901 14.39326,69.34541"
       style="fill:#ffffff;stroke:#000000;stroke-width:4.03152943px;stroke-linecap:butt;stroke-linejoin:round;stroke-miterlimit:10;stroke-dasharray:none;stroke-opacity:1" />
    <path
       inkscape:connector-curvature="0"
       id="path4998"
       d="m 152.37532,438.73372 c -24.99826,-29.89133 -49.99651,-59.69027 -58.045282,-73.05807 -7.95401,-13.46061 -1.230901,-18.28782 10.037242,-7.33376 11.26818,10.95423 34.37208,42.05278 57.57126,73.05845 z"
       style="fill:#ffffff;fill-opacity:1;fill-rule:evenodd;stroke:none" />
    <path
       inkscape:connector-curvature="0"
       id="path5000"
       d="m 152.37532,438.73372 c -24.99826,-29.89133 -49.99651,-59.69027 -58.045282,-73.05807 -7.95401,-13.46061 -1.230901,-18.28782 10.037242,-7.33376 11.26818,10.95423 34.37208,42.05278 57.57126,73.05845"
       style="fill:#ffffff;stroke:#000000;stroke-width:4.03152943px;stroke-linecap:butt;stroke-linejoin:round;stroke-miterlimit:10;stroke-dasharray:none;stroke-opacity:1" />
    <path
       inkscape:connector-curvature="0"
       id="path5002"
       d="m 184.38032,425.08744 c -4.63984,-38.33901 -9.37417,-76.67853 -8.80587,-92.18135 0.66285,-15.50295 8.99612,-16.05989 12.4993,-0.83552 3.40872,15.1316 5.9655,53.56389 8.42781,91.90375 z"
       style="fill:#ffffff;fill-opacity:1;fill-rule:evenodd;stroke:none" />
    <path
       inkscape:connector-curvature="0"
       id="path5004"
       d="m 184.38032,425.08744 c -4.63984,-38.33901 -9.37417,-76.67853 -8.80587,-92.18135 0.66285,-15.50295 8.99612,-16.05989 12.4993,-0.83552 3.40872,15.1316 5.9655,53.56389 8.42781,91.90375"
       style="fill:#ffffff;stroke:#000000;stroke-width:4.03152943px;stroke-linecap:butt;stroke-linejoin:round;stroke-miterlimit:10;stroke-dasharray:none;stroke-opacity:1" />
    <path
       inkscape:connector-curvature="0"
       id="path5006"
       d="m 142.9066,467.0479 c -22.15789,-7.89053 -44.315382,-15.68837 -52.553546,-20.23713 -8.238034,-4.45611 -6.344195,-9.00487 2.840715,-6.68354 9.279671,2.22743 30.774491,11.2323 52.364201,20.32978 z"
       style="fill:#ffffff;fill-opacity:1;fill-rule:evenodd;stroke:none" />
    <path
       inkscape:connector-curvature="0"
       id="path5008"
       d="m 142.9066,467.0479 c -22.15789,-7.89053 -44.315382,-15.68837 -52.553546,-20.23713 -8.238034,-4.45611 -6.344195,-9.00487 2.840715,-6.68354 9.279671,2.22743 30.774491,11.2323 52.364201,20.32978"
       style="fill:#ffffff;stroke:#000000;stroke-width:4.03152943px;stroke-linecap:butt;stroke-linejoin:round;stroke-miterlimit:10;stroke-dasharray:none;stroke-opacity:1" />
    <path
       inkscape:connector-curvature="0"
       id="path5010"
       d="m 148.87209,455.1658 c -20.83222,-10.67632 -41.75882,-21.35147 -49.334039,-26.82923 -7.575183,-5.47655 -5.018621,-9.74733 3.787639,-6.31173 8.8062,3.43446 28.97524,15.13126 49.14413,26.82806 z"
       style="fill:#ffffff;fill-opacity:1;fill-rule:evenodd;stroke:none" />
    <path
       inkscape:connector-curvature="0"
       id="path5012"
       d="m 148.87209,455.1658 c -20.83222,-10.67632 -41.75882,-21.35147 -49.334039,-26.82923 -7.575183,-5.47655 -5.018621,-9.74733 3.787639,-6.31173 8.8062,3.43446 28.97524,15.13126 49.14413,26.82806"
       style="fill:#ffffff;stroke:#000000;stroke-width:4.03152943px;stroke-linecap:butt;stroke-linejoin:round;stroke-miterlimit:10;stroke-dasharray:none;stroke-opacity:1" />
    <path
       inkscape:connector-curvature="0"
       id="path5014"
       d="m 145.17866,459.62188 c -28.02814,-11.04697 -56.056506,-22.09397 -66.472446,-28.22154 -10.41594,-6.12638 -7.669943,-11.78945 3.976984,-8.54032 11.741601,3.34177 38.917762,15.8737 66.188892,28.40682 z"
       style="fill:#ffffff;fill-opacity:1;fill-rule:evenodd;stroke:none" />
    <path
       inkscape:connector-curvature="0"
       id="path5016"
       d="m 145.17866,459.62188 c -28.02814,-11.04697 -56.056506,-22.09397 -66.472446,-28.22154 -10.41594,-6.12638 -7.669943,-11.78945 3.976984,-8.54032 11.741601,3.34177 38.917762,15.8737 66.188892,28.40682"
       style="fill:#ffffff;stroke:#000000;stroke-width:4.03152943px;stroke-linecap:butt;stroke-linejoin:round;stroke-miterlimit:10;stroke-dasharray:none;stroke-opacity:1" />
    <path
       inkscape:connector-curvature="0"
       id="path5018"
       d="m 142.14924,472.98899 c -29.25986,-7.0554 -58.613798,-14.11079 -69.881939,-18.75219 -11.173552,-4.54876 -9.279671,-10.5825 2.745954,-8.91101 12.120385,1.67027 40.906235,10.21065 69.597095,18.84484 z"
       style="fill:#ffffff;fill-opacity:1;fill-rule:evenodd;stroke:none" />
    <path
       inkscape:connector-curvature="0"
       id="path5020"
       d="m 142.14924,472.98899 c -29.25986,-7.0554 -58.613798,-14.11079 -69.881939,-18.75219 -11.173552,-4.54876 -9.279671,-10.5825 2.745954,-8.91101 12.120385,1.67027 40.906235,10.21065 69.597095,18.84484"
       style="fill:#ffffff;stroke:#000000;stroke-width:4.03152943px;stroke-linecap:butt;stroke-linejoin:round;stroke-miterlimit:10;stroke-dasharray:none;stroke-opacity:1" />
    <path
       inkscape:connector-curvature="0"
       id="path5022"
       d="M 151.33321,449.22471 C 125.57794,433.53512 99.916879,417.9394 90.731839,410.14203 c -9.18491,-7.79788 -5.492036,-12.90354 5.49208,-7.70499 10.889351,5.29139 35.508911,22.18712 60.222881,39.08248 z"
       style="fill:#ffffff;fill-opacity:1;fill-rule:evenodd;stroke:none" />
    <path
       inkscape:connector-curvature="0"
       id="path5024"
       d="M 151.33321,449.22471 C 125.57794,433.53512 99.916879,417.9394 90.731839,410.14203 c -9.18491,-7.79788 -5.492036,-12.90354 5.49208,-7.70499 10.889351,5.29139 35.508911,22.18712 60.222881,39.08248"
       style="fill:#ffffff;stroke:#000000;stroke-width:4.03152943px;stroke-linecap:butt;stroke-linejoin:round;stroke-miterlimit:10;stroke-dasharray:none;stroke-opacity:1" />
    <path
       inkscape:connector-curvature="0"
       id="path5026"
       d="M 142.4328,476.42341 C 103.23101,472.711 64.029138,468.90473 48.689339,465.00577 33.349411,461.0142 34.58044,452.93716 50.488417,452.84451 c 15.908019,0 54.636343,5.84836 93.459093,11.78944 z"
       style="fill:#ffffff;fill-opacity:1;fill-rule:evenodd;stroke:none" />
    <path
       inkscape:connector-curvature="0"
       id="path5028"
       d="M 142.4328,476.42341 C 103.23101,472.711 64.029138,468.90473 48.689339,465.00577 33.349411,461.0142 34.58044,452.93716 50.488417,452.84451 c 15.908019,0 54.636343,5.84836 93.459093,11.78944"
       style="fill:#ffffff;stroke:#000000;stroke-width:4.03152943px;stroke-linecap:butt;stroke-linejoin:round;stroke-miterlimit:10;stroke-dasharray:none;stroke-opacity:1" />
    <path
       inkscape:connector-curvature="0"
       id="path5030"
       d="M 154.26928,446.99606 C 123.21065,423.138 92.246893,399.2807 81.546929,387.86252 c -10.794724,-11.41835 -5.302644,-17.5452 8.143273,-9.19042 13.446088,8.262 42.894868,33.69798 72.344048,59.1338 z"
       style="fill:#ffffff;fill-opacity:1;fill-rule:evenodd;stroke:none" />
    <path
       inkscape:connector-curvature="0"
       id="path5032"
       d="M 154.26928,446.99606 C 123.21065,423.138 92.246893,399.2807 81.546929,387.86252 c -10.794724,-11.41835 -5.302644,-17.5452 8.143273,-9.19042 13.446088,8.262 42.894868,33.69798 72.344048,59.1338"
       style="fill:#ffffff;stroke:#000000;stroke-width:4.03152943px;stroke-linecap:butt;stroke-linejoin:round;stroke-miterlimit:10;stroke-dasharray:none;stroke-opacity:1" />
    <path
       inkscape:connector-curvature="0"
       id="path5034"
       d="M 158.52982,444.76863 C 125.29391,413.8554 92.0575,382.94237 80.884119,368.64628 69.710567,354.3502 76.717701,347.75907 91.394691,358.80607 c 14.582319,11.04695 45.829959,43.63097 77.172149,76.21521 z"
       style="fill:#ffffff;fill-opacity:1;fill-rule:evenodd;stroke:none" />
    <path
       inkscape:connector-curvature="0"
       id="path5036"
       d="M 158.52982,444.76863 C 125.29391,413.8554 92.0575,382.94237 80.884119,368.64628 69.710567,354.3502 76.717701,347.75907 91.394691,358.80607 c 14.582319,11.04695 45.829959,43.63097 77.172149,76.21521"
       style="fill:#ffffff;stroke:#000000;stroke-width:4.03152943px;stroke-linecap:butt;stroke-linejoin:round;stroke-miterlimit:10;stroke-dasharray:none;stroke-opacity:1" />
    <path
       inkscape:connector-curvature="0"
       id="path5038"
       d="m 193.7545,394.08214 c -47.06113,0 -85.22081,37.41085 -85.22081,83.54825 0,46.13741 38.15968,83.54893 85.22081,83.54893 47.15687,0 85.31641,-37.41152 85.31641,-83.54893 0,-46.1374 -38.15954,-83.54825 -85.31641,-83.54825 z"
       style="fill:#ffffff;fill-opacity:1;fill-rule:evenodd;stroke:none" />
    <path
       inkscape:connector-curvature="0"
       id="path5040"
       d="m 193.7545,394.08214 c -47.06113,0 -85.22081,37.41085 -85.22081,83.54825 0,46.13741 38.15968,83.54893 85.22081,83.54893 47.15687,0 85.31641,-37.41152 85.31641,-83.54893 0,-46.1374 -38.15954,-83.54825 -85.31641,-83.54825"
       style="fill:#ffffff;stroke:#000000;stroke-width:4.03152943px;stroke-linecap:butt;stroke-linejoin:round;stroke-miterlimit:10;stroke-dasharray:none;stroke-opacity:1" />
  </g>
</svg>
